<?xml version="1.0" encoding="UTF-8"?>
<svg id="Calque_2" data-name="Calque 2" xmlns="http://www.w3.org/2000/svg" viewBox="0 0 283.46 178.23">
  <defs>
    <style>
      .cls-1 {
        fill: #fff;
      }

      .cls-2 {
        fill: #d74a2a;
      }

      .cls-3 {
        fill: #3b3b3c;
      }
    </style>
  </defs>
  <g id="Layer_1" data-name="Layer 1">
    <g>
      <path class="cls-3" d="M18.17,83.03v13.32c0,2.77-.8,4.99-2.42,6.67-1.62,1.68-3.84,2.51-6.67,2.51s-5.05-.83-6.67-2.51c-1.62-1.68-2.42-3.9-2.42-6.67v-13.32H2.56v13.26c0,2.11,.57,3.77,1.7,5.02,1.12,1.25,2.72,1.88,4.83,1.88s3.73-.63,4.87-1.88c1.13-1.25,1.7-2.93,1.7-5.02v-13.26h2.53Zm17.07,7.79c-1.12-1.22-2.66-1.83-4.62-1.83-1.31,0-2.45,.29-3.45,.86-1,.59-1.8,1.36-2.39,2.3v-2.77h-2.42v15.74h2.42v-7.92c0-1.77,.49-3.2,1.46-4.3,.97-1.09,2.25-1.63,3.84-1.63,1.42,0,2.51,.43,3.28,1.29,.76,.88,1.14,2.09,1.14,3.65v8.9h2.43v-9.24c0-2.14-.57-3.83-1.69-5.05m5.85,14.29h2.42v-15.74h-2.42v15.74Zm0-19.14c.32,.32,.72,.48,1.2,.48s.88-.15,1.2-.48c.31-.32,.46-.72,.46-1.2,0-.45-.15-.82-.48-1.14-.32-.31-.72-.46-1.19-.46s-.86,.15-1.19,.46c-.32,.32-.49,.69-.49,1.14,0,.48,.16,.88,.48,1.2m18.57,3.4l-5.54,13.09-5.58-13.09h-2.62l6.84,15.74h2.68l6.84-15.74h-2.62Zm5.71,6.84c.11-1.4,.68-2.6,1.71-3.59,1.03-.99,2.34-1.48,3.9-1.48s2.93,.46,3.9,1.39c.97,.92,1.49,2.14,1.6,3.65l-11.1,.03Zm-.08,7.04c1.54,1.52,3.53,2.28,5.98,2.28,1.85,0,3.4-.43,4.67-1.31,1.26-.88,2.19-1.96,2.77-3.23l-2.23-.66c-.42,.88-1.08,1.62-1.96,2.19-.88,.57-1.97,.86-3.25,.86-1.73,0-3.11-.49-4.16-1.48-1.06-.99-1.63-2.28-1.74-3.88h13.43c.05-.28,.06-.66,.06-1.14,0-2.26-.71-4.16-2.11-5.65-1.4-1.49-3.33-2.23-5.78-2.23s-4.27,.79-5.76,2.36c-1.49,1.57-2.25,3.53-2.25,5.88,0,2.51,.77,4.51,2.33,6.02m21.59-13.57c-.97,.54-1.71,1.34-2.19,2.4v-2.71h-2.42v15.74h2.42v-7.35c0-2.4,.51-4.11,1.51-5.14,1-1.02,2.37-1.4,4.14-1.17v-2.26c-1.34-.2-2.49-.03-3.47,.49m7.31,14.46c1.34,.92,2.88,1.39,4.62,1.39,1.85,0,3.37-.46,4.59-1.39,1.22-.91,1.82-2.06,1.82-3.45,0-1.12-.34-2-1.02-2.63-.69-.62-1.63-1.11-2.83-1.46l-4.48-1.33c-1.4-.41-2.11-1.05-2.11-1.89,0-.59,.31-1.13,.94-1.6,.62-.48,1.42-.72,2.4-.72,1.09,0,2.05,.23,2.85,.71,.78,.48,1.34,1.08,1.63,1.8l2.22-.66c-.49-1.12-1.32-2.06-2.48-2.8-1.17-.74-2.56-1.11-4.17-1.11s-2.99,.43-4.1,1.31c-1.12,.88-1.68,1.91-1.68,3.11-.01,1.83,1.2,3.09,3.65,3.82l4.48,1.32c.82,.26,1.42,.54,1.77,.86,.35,.32,.52,.8,.52,1.4,0,.72-.37,1.32-1.09,1.83-.74,.51-1.7,.76-2.85,.76-1.22,0-2.28-.31-3.19-.94-.91-.62-1.53-1.4-1.82-2.34l-2.28,.63c.4,1.34,1.26,2.48,2.6,3.39m14.42,.97h2.42v-15.74h-2.42v15.74Zm0-19.14c.32,.32,.72,.48,1.2,.48s.88-.15,1.2-.48c.31-.32,.46-.72,.46-1.2,0-.45-.15-.82-.48-1.14-.32-.31-.72-.46-1.19-.46s-.86,.15-1.19,.46c-.32,.32-.49,.69-.49,1.14,0,.48,.15,.88,.48,1.2m15.35,16.59c-.72,.35-1.46,.54-2.25,.54-1.71,0-2.56-.92-2.56-2.77v-8.75h5.41v-2.2h-5.41v-5.42h-2.42v5.42h-3.13v2.2h3.13v8.75c0,1.56,.38,2.77,1.16,3.67,.76,.89,1.91,1.34,3.45,1.34,1.12,0,2.22-.23,3.28-.69l-.66-2.08Zm16.39-13.18l-5.44,12.71-5.82-12.71h-2.68l7.28,15.43-3,6.93h2.56l9.69-22.36h-2.59ZM19.11,116.28l-8.19,11.77-8.24-11.77H.29v22.09H2.8v-17.76l8.12,11.47,8.1-11.47v17.76h2.49v-22.09h-2.4Zm18.47,18.53c-1.12,1.16-2.54,1.72-4.22,1.72s-3.13-.57-4.25-1.72c-1.14-1.14-1.71-2.57-1.71-4.3s.57-3.17,1.71-4.33c1.12-1.16,2.54-1.73,4.25-1.73s3.1,.57,4.22,1.73c1.12,1.16,1.68,2.6,1.68,4.33s-.55,3.16-1.68,4.3m-10.16,1.59c1.59,1.59,3.56,2.39,5.95,2.39s4.34-.8,5.93-2.39c1.57-1.59,2.36-3.56,2.36-5.91s-.79-4.31-2.36-5.88c-1.59-1.57-3.56-2.36-5.93-2.36s-4.36,.79-5.95,2.36c-1.59,1.57-2.39,3.53-2.39,5.88s.8,4.33,2.39,5.91m30.47-12.32c-1.12-1.22-2.66-1.83-4.62-1.83-1.31,0-2.45,.29-3.45,.86-1,.59-1.8,1.36-2.39,2.3v-10.06h-2.42v23.02h2.42v-7.92c0-1.77,.49-3.2,1.46-4.3,.97-1.09,2.25-1.63,3.83-1.63,1.42,0,2.51,.43,3.28,1.29,.76,.88,1.14,2.09,1.14,3.65v8.9h2.43v-9.24c0-2.14-.57-3.83-1.69-5.05m17.34,10.75c-1.15,1.15-2.56,1.74-4.2,1.74s-3.14-.57-4.23-1.73c-1.11-1.14-1.66-2.59-1.66-4.33s.55-3.22,1.66-4.36c1.09-1.12,2.51-1.7,4.23-1.7,1.63,0,3.03,.57,4.19,1.73,1.16,1.16,1.74,2.6,1.74,4.33s-.57,3.16-1.73,4.31m-10.23,1.59c1.51,1.59,3.4,2.37,5.67,2.37,2.77,0,4.85-1.09,6.22-3.28v2.87h2.42v-15.74h-2.42v2.83c-1.4-2.14-3.47-3.22-6.22-3.22-2.26,0-4.16,.79-5.67,2.36-1.52,1.57-2.28,3.53-2.28,5.88s.76,4.34,2.28,5.93m41.41-12.41c-1.09-1.17-2.59-1.76-4.48-1.76-2.6,0-4.5,1.02-5.65,3.03-.97-2.02-2.66-3.03-5.05-3.03s-4.05,.99-5.24,2.97v-2.59h-2.42v15.74h2.42v-8.04c0-1.74,.43-3.16,1.31-4.22,.88-1.06,2-1.59,3.39-1.59,1.26,0,2.23,.42,2.9,1.26,.66,.85,.99,2,.99,3.5v9.09h2.43v-8.42c0-1.65,.42-2.96,1.25-3.94,.83-.99,1.92-1.48,3.26-1.48s2.37,.42,3.07,1.25c.69,.83,1.03,2,1.03,3.51v9.09h2.43v-9.46c0-2.11-.54-3.74-1.63-4.91m28.63,0c-1.09-1.17-2.59-1.76-4.48-1.76-2.6,0-4.5,1.02-5.65,3.03-.97-2.02-2.66-3.03-5.05-3.03s-4.05,.99-5.24,2.97v-2.59h-2.42v15.74h2.42v-8.04c0-1.74,.43-3.16,1.31-4.22,.88-1.06,2-1.59,3.39-1.59,1.26,0,2.23,.42,2.9,1.26,.66,.85,.99,2,.99,3.5v9.09h2.43v-8.42c0-1.65,.42-2.96,1.25-3.94,.83-.99,1.92-1.48,3.27-1.48s2.37,.42,3.06,1.25c.69,.83,1.03,2,1.03,3.51v9.09h2.43v-9.46c0-2.11-.54-3.74-1.63-4.91m7.23,5.47c.11-1.4,.68-2.6,1.71-3.59,1.03-.99,2.34-1.48,3.9-1.48s2.93,.46,3.9,1.39c.97,.92,1.49,2.14,1.6,3.65l-11.1,.03Zm-.08,7.04c1.54,1.52,3.53,2.28,5.98,2.28,1.85,0,3.4-.43,4.67-1.31,1.26-.88,2.19-1.96,2.77-3.23l-2.23-.66c-.42,.88-1.08,1.62-1.96,2.19-.88,.57-1.97,.86-3.25,.86-1.72,0-3.11-.49-4.16-1.48-1.06-.99-1.63-2.28-1.74-3.88h13.43c.05-.28,.06-.66,.06-1.14,0-2.26-.71-4.16-2.11-5.65-1.4-1.49-3.33-2.23-5.78-2.23s-4.27,.79-5.76,2.36c-1.49,1.57-2.25,3.53-2.25,5.88,0,2.51,.77,4.51,2.33,6.02m28.51-1.68c-1.16,1.15-2.56,1.74-4.21,1.74s-3.14-.57-4.23-1.72c-1.11-1.14-1.66-2.59-1.66-4.33s.55-3.22,1.66-4.36c1.09-1.13,2.51-1.7,4.23-1.7,1.63,0,3.03,.57,4.19,1.73,1.16,1.16,1.74,2.6,1.74,4.33s-.57,3.16-1.72,4.31m1.66-19.48v10.12c-1.4-2.14-3.47-3.22-6.22-3.22-2.26,0-4.16,.79-5.67,2.36-1.52,1.57-2.28,3.53-2.28,5.88s.76,4.34,2.28,5.93c1.51,1.59,3.4,2.37,5.67,2.37,2.79,0,4.85-1.09,6.22-3.28v2.86h2.42v-23.02h-2.42Zm30.98,.94l-7.52,18.96-7.53-18.96h-2.71l8.89,22.09h2.68l8.9-22.09h-2.71Zm5.08,22.09h2.51v-22.09h-2.51v22.09ZM13.48,160.04c-.91,.97-2.13,1.45-3.63,1.45H2.77v-9.66h7.19c1.42,0,2.59,.48,3.5,1.43,.91,.96,1.37,2.08,1.37,3.39s-.45,2.43-1.36,3.39m1.82-8.35c-1.31-1.45-3.06-2.17-5.27-2.17H.29v22.08H2.77v-7.85h7.13c2.26,0,4.07-.71,5.37-2.14,1.31-1.42,1.97-3.07,1.97-4.96s-.65-3.5-1.96-4.96m15.96,16.36c-1.12,1.16-2.54,1.72-4.22,1.72s-3.13-.57-4.25-1.72c-1.14-1.14-1.71-2.57-1.71-4.3s.57-3.17,1.71-4.33c1.12-1.16,2.54-1.73,4.25-1.73s3.1,.57,4.22,1.73c1.12,1.16,1.68,2.6,1.68,4.33s-.55,3.16-1.68,4.3m-10.16,1.59c1.59,1.59,3.56,2.39,5.95,2.39s4.34-.8,5.93-2.39c1.57-1.59,2.36-3.56,2.36-5.91s-.79-4.31-2.36-5.88c-1.59-1.57-3.56-2.36-5.93-2.36s-4.36,.79-5.95,2.36c-1.59,1.57-2.39,3.53-2.39,5.88s.8,4.33,2.39,5.91m17.58,1.97h2.42v-23.02h-2.42v23.02Zm18.71-15.74l-5.44,12.71-5.82-12.71h-2.68l7.28,15.43-3,6.93h2.56l9.69-22.36h-2.59Zm14.49,13.18c-.72,.35-1.46,.54-2.25,.54-1.71,0-2.56-.92-2.56-2.77v-8.75h5.41v-2.2h-5.41v-5.42h-2.42v5.42h-3.13v2.2h3.13v8.75c0,1.56,.38,2.77,1.16,3.67,.75,.89,1.91,1.34,3.45,1.34,1.12,0,2.22-.23,3.28-.69l-.66-2.08Zm4.52-6.35c.11-1.4,.68-2.6,1.71-3.59,1.03-.99,2.34-1.48,3.9-1.48s2.93,.46,3.9,1.39c.97,.92,1.49,2.14,1.6,3.65l-11.1,.03Zm-.08,7.04c1.54,1.52,3.53,2.28,5.98,2.28,1.85,0,3.4-.43,4.67-1.31,1.26-.88,2.19-1.96,2.77-3.23l-2.23-.66c-.42,.88-1.08,1.62-1.96,2.19-.88,.57-1.97,.86-3.25,.86-1.72,0-3.11-.49-4.16-1.48-1.06-.99-1.63-2.28-1.74-3.88h13.43c.05-.28,.06-.66,.06-1.14,0-2.26-.71-4.16-2.11-5.65-1.4-1.49-3.33-2.23-5.77-2.23s-4.27,.79-5.76,2.36c-1.49,1.57-2.25,3.53-2.25,5.88,0,2.51,.77,4.51,2.33,6.02m18.35-.11c1.56,1.59,3.51,2.39,5.87,2.39,1.89,0,3.48-.49,4.79-1.46,1.31-.97,2.14-2.06,2.49-3.31l-2.28-.6c-.26,.86-.86,1.6-1.77,2.22-.91,.63-1.99,.94-3.23,.94-1.71,0-3.1-.6-4.17-1.79-1.09-1.19-1.63-2.6-1.63-4.27s.54-3.13,1.62-4.31c1.06-1.19,2.46-1.77,4.19-1.77,1.22,0,2.28,.32,3.2,.97,.92,.66,1.52,1.42,1.8,2.28l2.28-.66c-.35-1.22-1.2-2.33-2.51-3.31-1.31-.97-2.91-1.46-4.77-1.46-2.36,0-4.31,.79-5.87,2.36-1.56,1.57-2.34,3.53-2.34,5.85s.79,4.36,2.34,5.94m29.22-12.32c-1.12-1.22-2.66-1.83-4.62-1.83-1.31,0-2.45,.29-3.45,.86-1,.59-1.8,1.36-2.39,2.3v-10.06h-2.42v23.02h2.42v-7.92c0-1.77,.49-3.2,1.46-4.3,.97-1.09,2.25-1.63,3.84-1.63,1.42,0,2.51,.43,3.28,1.29,.75,.88,1.14,2.09,1.14,3.65v8.9h2.43v-9.24c0-2.14-.57-3.83-1.69-5.05m18.73,0c-1.12-1.22-2.66-1.83-4.62-1.83-1.31,0-2.45,.29-3.45,.86-1,.59-1.8,1.36-2.39,2.3v-2.77h-2.42v15.74h2.42v-7.92c0-1.77,.49-3.2,1.46-4.3,.97-1.09,2.25-1.63,3.84-1.63,1.42,0,2.51,.43,3.28,1.29,.76,.88,1.14,2.09,1.14,3.65v8.9h2.43v-9.24c0-2.14-.57-3.83-1.69-5.05m5.85,14.29h2.42v-15.74h-2.42v15.74Zm0-19.14c.32,.32,.72,.48,1.2,.48s.88-.15,1.2-.48c.31-.32,.46-.72,.46-1.2,0-.45-.15-.82-.48-1.14-.32-.31-.72-.46-1.19-.46s-.86,.15-1.19,.46c-.32,.32-.49,.69-.49,1.14,0,.48,.16,.88,.48,1.2m8.05,17.17c1.56,1.59,3.51,2.39,5.87,2.39,1.89,0,3.48-.49,4.79-1.46,1.31-.97,2.14-2.06,2.49-3.31l-2.28-.6c-.26,.86-.86,1.6-1.77,2.22-.91,.63-1.99,.94-3.23,.94-1.71,0-3.1-.6-4.17-1.79-1.09-1.19-1.63-2.6-1.63-4.27s.54-3.13,1.62-4.31c1.06-1.19,2.46-1.77,4.19-1.77,1.22,0,2.28,.32,3.2,.97,.92,.66,1.52,1.42,1.8,2.28l2.28-.66c-.35-1.22-1.2-2.33-2.51-3.31-1.31-.97-2.91-1.46-4.77-1.46-2.36,0-4.31,.79-5.87,2.36-1.56,1.57-2.34,3.53-2.34,5.85s.78,4.36,2.34,5.94"/>
      <rect class="cls-2" x=".26" width="65.85" height="65.85"/>
      <path class="cls-1" d="M50.72,13.3v23.09c0,5.2-1.54,9.37-4.61,12.51-3.08,3.14-7.38,4.71-12.91,4.71s-9.88-1.57-12.95-4.71-4.6-7.31-4.6-12.51V13.3h9.48v22.92c0,2.63,.68,4.75,2.05,6.36,1.37,1.62,3.37,2.42,6.01,2.42s4.64-.81,6.01-2.42c1.37-1.62,2.05-3.74,2.05-6.36V13.3h9.48Z"/>
      <rect class="cls-2" x="72.75" width="65.85" height="65.85"/>
      <rect class="cls-2" x="145.18" width="65.85" height="65.85"/>
      <rect class="cls-2" x="217.62" width="65.85" height="65.85"/>
      <polygon class="cls-1" points="126.64 13.17 126.64 52.68 117.27 52.68 117.27 29.53 105.65 45.41 94.07 29.53 94.07 52.68 84.71 52.68 84.71 13.17 93.61 13.17 105.7 30.72 117.71 13.17 126.64 13.17"/>
      <path class="cls-1" d="M182.54,43.62c1.1-1.09,1.65-2.5,1.65-4.23s-.55-3.03-1.65-4.15c-1.1-1.11-2.58-1.67-4.44-1.67s-3.26,.55-4.39,1.65c-1.13,1.1-1.69,2.49-1.69,4.16s.56,3.14,1.67,4.23c1.11,1.09,2.59,1.64,4.44,1.64s3.32-.55,4.42-1.64m7.05-13.83c2.61,2.56,3.91,5.76,3.91,9.6,0,4.06-1.47,7.44-4.39,10.15s-6.59,4.06-10.99,4.06-8.07-1.35-11.01-4.04c-2.94-2.69-4.41-6.08-4.41-10.18,0-2.63,.93-5.42,2.78-8.38l11.21-17.72h10.55l-7.71,12.21c4.1,.29,7.45,1.72,10.06,4.28"/>
      <path class="cls-1" d="M256.44,31.52c1.07-1.16,1.6-2.51,1.6-4.05s-.5-2.9-1.51-4.06c-1.01-1.17-2.27-1.75-3.77-1.75h-9.53v11.6h9.15c1.65,0,3.01-.58,4.08-1.74m6.76-14c2.62,2.9,3.93,6.19,3.93,9.86s-1.33,7.03-3.98,9.92c-2.65,2.88-6.18,4.33-10.57,4.33h-9.37v11.05h-9.26V13.17h19.01c4.21,0,7.62,1.45,10.24,4.35"/>
    </g>
  </g>
</svg>