<svg xmlns="http://www.w3.org/2000/svg" viewBox="0 0 93.11 93.49"><defs><style>.cls-1{fill:#fff;}</style></defs><g id="Calque_2" data-name="Calque 2"><g id="Calque_1-2" data-name="Calque 1"><path class="cls-1" d="M50.56,0c4.24,1.06,8.6,1.77,12.68,3.24C83.44,10.53,96.18,32.81,92.46,54,89,73.64,75.34,88.09,56.06,92.45,34.33,97.36,10.79,84.52,3.12,63.59-5.07,41.22,3.21,18,23.74,6A44.46,44.46,0,0,1,40.5.41c.66-.09,1.31-.27,2-.41Zm-4,4.07A42.65,42.65,0,1,0,89,46.81,42.69,42.69,0,0,0,46.6,4.07Z"/><path class="cls-1" d="M44.56,48.7H20.28V44.76H44.46V20.41h4V44.66H72.75v4H48.56V73h-4Z"/></g></g></svg>
