<svg xmlns="http://www.w3.org/2000/svg" viewBox="0 0 557.03 409.78"><defs><style>.cls-1{fill:#be3712;}</style></defs><g id="Calque_2" data-name="Calque 2"><g id="Calque_1-2" data-name="Calque 1"><path class="cls-1" d="M0,313.18c1.48-6.49,2.69-13,4.48-19.44,6.31-22.59,18.72-41,36.47-56.54,37.08-32.41,91.45-30.94,125.68-9.78.75.47,1.59.81,2.8,1.43,29.24-29.32,64.09-46.4,106.08-47.16S353.14,196.11,383.39,225c13.37-8.87,27.54-15.12,43.1-17.81,32.63-5.64,62.78.8,88.37,21.85,26.36,21.69,40.6,50.38,41.93,84.87.43,11,.16,22.11.11,33.18-.08,15.87-9.5,25.42-25.37,25.48-30.26.09-60.52,0-90.79,0H429.69c0,2.51,0,4.62,0,6.72-.19,17.73-12.26,30-30,30.47-1.63,0-3.26,0-4.89,0H162.11c-22,0-31.91-8.39-35.46-30.34H120.9c-30.44,0-60.89-.36-91.33.16-14.39.25-24.52-4.66-29.57-18.52Zm278.3,78.45H397.37c10.58,0,14.37-3.72,14.43-14.39.09-13.22,0-26.45,0-39.68a142.38,142.38,0,0,0-10-52.53c-8.68-22-22.65-40.33-40.51-55.46-21.25-18-46.95-26.07-74-29.27-9.59-1.13-19.72.52-29.41,2.14C232.8,206.6,210.1,216,191.32,233.89c-10.13,9.67-19.41,19.77-26.6,31.94-9.18,15.52-16.08,32-17.66,49.77-1.82,20.34-1.54,40.87-1.93,61.32-.22,11,3.69,14.7,14.64,14.7Zm151.35-37.32c1.61.13,2.49.25,3.37.25q49.2,0,98.4,0c5.87,0,7.45-1.55,7.46-8.05,0-12.69.67-25.48-.61-38.05-4-39.68-27.79-66.92-62.73-80.44-7.44-2.89-15.83-4-23.88-4.55-20.28-1.42-38.91,3.72-55.41,16.19,12.77,16.17,21.56,34.18,27.37,53.87S430,333.47,429.65,354.31ZM157.29,244a98.85,98.85,0,0,0-41-13.38c-7.65-.75-15.71.67-23.37,2.21C71.74,237.07,53.71,246.7,40,264.09c-9.28,11.75-17.23,24.25-19.12,39-2.12,16.63-2.15,33.54-2.81,50.34-.26,6.56,1.32,7.8,8.1,7.81q48.12,0,96.24,0c1.54,0,3.08-.26,5.32-.45C124.45,318.45,131.78,279.12,157.29,244Z"/><path class="cls-1" d="M358.28,85.35c-.7,45.76-32.55,84.61-82.85,84.89-48.2.26-82.12-37-83-84.14C191.62,39.86,227.85,0,275.23,0S358.34,39.19,358.28,85.35Zm-82.9-67.19A66.93,66.93,0,0,0,210.25,85.7c.09,36.33,30.3,66.47,65,66.52,35,0,65-30.43,65.13-66.4A67,67,0,0,0,275.38,18.16Z"/><path class="cls-1" d="M110,63c35.59-.08,64.93,30,64.8,66.44-.12,36.64-28.83,66.05-64.52,66.11-36.06.06-64.7-29.32-64.68-66.36C45.64,92.63,74.39,63.08,110,63Zm.26,19.25c-26.25,0-46.56,20.61-46.84,47-.29,26,23,48.23,46.6,48.34,24,.12,47.18-23,46.78-48.11C156.39,102.89,136.55,82.28,110.28,82.25Z"/><path class="cls-1" d="M511.29,125.24c-.12,36.51-29.07,66.11-64.68,65.86-37.53-.26-64.46-30.86-64.45-66.69,0-36.7,29-65.9,64.73-65.83C483,58.65,511.41,88.07,511.29,125.24ZM446.9,76.71c-22.79-.85-47,21.41-46.84,47.88.16,28.59,23.74,48.11,46.54,48.21s46.54-19,46.86-47.9C493.75,97.83,469.63,76.13,446.9,76.71Z"/></g></g></svg>