<svg xmlns="http://www.w3.org/2000/svg" viewBox="0 0 88.62 110.77"><defs><style>.cls-1{fill-opacity:0.8;}</style></defs><g id="Calque_2" data-name="Calque 2"><g id="Calque_1-2" data-name="Calque 1"><path class="cls-1" d="M44.31,49.85A16.63,16.63,0,1,0,32.56,45,16.67,16.67,0,0,0,44.31,49.85Zm0-22.16a5.58,5.58,0,0,1,3.08.94,5.5,5.5,0,0,1,2,2.48,5.65,5.65,0,0,1,.31,3.2,5.55,5.55,0,0,1-7.55,4,5.58,5.58,0,0,1-2.49-2,5.55,5.55,0,0,1,4.61-8.62Z"/><path class="cls-1" d="M44.31,55.39A19.36,19.36,0,1,0,58,61.06a19.37,19.37,0,0,0-13.71-5.67Zm0,27.69a8.31,8.31,0,1,1,3.18-16,8.31,8.31,0,0,1-3.18,16Z"/><path class="cls-1" d="M72,0H16.62A16.63,16.63,0,0,0,0,16.62V94.16a16.61,16.61,0,0,0,16.62,16.61H72A16.61,16.61,0,0,0,88.62,94.16V16.62A16.63,16.63,0,0,0,72,0Zm5.54,94.16A5.55,5.55,0,0,1,72,99.7H16.62a5.55,5.55,0,0,1-5.54-5.54V16.62a5.53,5.53,0,0,1,5.54-5.54H72a5.53,5.53,0,0,1,5.54,5.54Z"/></g></g></svg>