<svg xmlns="http://www.w3.org/2000/svg" viewBox="0 0 980 957.58"><defs><style>.cls-1{fill:#be3712;}</style></defs><g id="Calque_2" data-name="Calque 2"><g id="Calque_1-2" data-name="Calque 1"><path class="cls-1" d="M452.5,4.18l-96.5,29c-44.8,13.46-86.9,26.19-93.5,28.25l-12,3.75-.25,19.2-.25,19.2H146v83H42v709H938v-709H834v-83H730l0-15.25c0-8.4-.36-17.27-.75-19.75l-.7-4.5L685,53c-23.9-6.1-57.69-14.78-75-19.27C532.5,13.61,479,.44,473.5.07c-5-.33-8.5.36-21,4.11Zm58,46.48c134.4,34.79,164.58,43,173.5,47.13l4.5,2.09-3.5.91c-9.8,2.58-381,2.64-389.4.07-3.9-1.2-4.26-2.8-1.1-4.87,1.43-.95,15.7-5.64,31.8-10.46S371.9,71.82,392,65.74c38.7-11.69,80.94-24,82.5-24.12.49,0,16.7,4.05,36,9ZM792,165.58v21H188v-42H792v21Zm105,375.5v312.5H584v-187H396v187H83v-625H897v312.5ZM542,780.58v73H438v-146H542v73Z"/><polygon class="cls-1" points="0 937.08 0 957.58 490 957.58 980 957.58 980 937.08 980 916.58 490 916.58 0 916.58 0 937.08 0 937.08"/><path class="cls-1" d="M125,363.58v94H250v-188H125v94Zm83.75.25.25,51.75H167v-104l20.75.25,20.75.25.25,51.75Z"/><path class="cls-1" d="M305,344.13v74.55l73.25-.7c40.3-.39,73.43-.86,73.65-1.05.6-.53,1.79-146.37,1.2-146.95-.22-.22-33.65-.4-74.25-.4H305v74.55Zm107-.05v32.5H347v-65h65v32.5Z"/><path class="cls-1" d="M526.45,270.83c-.25.68-.34,34.05-.2,74.25l.25,73,73-.35c40.2-.2,73.29-.65,73.65-1s1-33.6,1.4-73.9l.75-73.25H601.1c-58.4,0-74.3.26-74.65,1.25Zm106.85,53.5c-.16,7-.57,21.35-.9,31.85l-.6,19.1-18,.65c-9.9.35-24.3.65-31.9.65H568v-65h65.6l-.3,12.75Z"/><path class="cls-1" d="M730,363.58v94H855v-188H730v94Zm83,0v52H771V364.23c0-28.2.29-51.65.65-52s9.8-.65,21-.65H813v52Z"/><path class="cls-1" d="M305,535.58v73H454l-.25-72.75-.25-72.75-74.25-.25L305,462.58v73Zm105.26-32c.24.27.75,14.55,1.14,31.75l.7,31.25H346.8l.35-31.05c.3-26.2.58-31.21,1.85-32,1.5-1,60.38-.91,61.26.09Z"/><path class="cls-1" d="M526.65,463.23c-.36.35-.65,33.2-.65,73v72.35H675v-146H601.15c-40.6,0-74.14.29-74.5.65Zm100,39.95,5.15.5.6,18.2c.33,10,.74,24.17.9,31.45l.3,13.25H568v-65l26.75.55c14.7.3,29.07.77,31.9,1.05Z"/><path class="cls-1" d="M125,598.58v94H250v-188H125v94Zm83.75-.25-.25,51.75-20.75.25-20.75.25v-104h42l-.25,51.75Z"/><path class="cls-1" d="M730,598.58v94H855v-188H730v94Zm83,0v52l-20.75-.25-20.75-.25-.25-51.75L771,546.58h42v52Z"/></g></g></svg>