<?xml version="1.0" standalone="no"?>
<!DOCTYPE svg PUBLIC "-//W3C//DTD SVG 20010904//EN"
 "http://www.w3.org/TR/2001/REC-SVG-20010904/DTD/svg10.dtd">
<svg version="1.0" xmlns="http://www.w3.org/2000/svg"
 width="604.000000pt" height="604.000000pt" viewBox="0 0 604.000000 604.000000"
 preserveAspectRatio="xMidYMid meet">
<metadata>
Created by potrace 1.14, written by Peter Selinger 2001-2017
</metadata>
<g transform="translate(0.000000,604.000000) scale(0.100000,-0.100000)"
fill="#000000" stroke="none">
<path d="M3739 5733 c-2 -6 -137 -147 -299 -313 -162 -166 -333 -341 -379
-389 -46 -47 -212 -218 -370 -379 -157 -162 -329 -338 -381 -392 -99 -102
-586 -602 -747 -767 -51 -52 -93 -98 -93 -101 0 -7 100 -111 573 -596 155
-158 320 -328 367 -376 47 -48 200 -205 340 -349 l254 -261 109 112 c60 62
232 239 382 393 150 154 324 333 386 397 63 64 236 241 384 393 149 153 270
281 270 286 0 4 -99 110 -220 235 -121 124 -293 301 -382 393 l-161 166 -214
-219 c-117 -120 -290 -298 -384 -395 l-172 -176 384 -5 385 -5 -43 -41 c-35
-33 -403 -410 -674 -689 l-51 -52 -89 92 c-49 51 -219 226 -379 390 -159 163
-290 301 -290 306 0 4 117 128 260 275 143 147 294 302 335 344 41 43 199 206
352 362 152 155 340 348 417 428 l141 145 103 -106 c56 -59 235 -243 397 -409
162 -166 330 -339 374 -384 60 -62 614 -631 635 -652 2 -2 -62 -70 -142 -151
-80 -82 -187 -191 -237 -243 -51 -52 -219 -225 -374 -384 -154 -158 -321 -330
-371 -381 -49 -51 -229 -235 -400 -410 -170 -175 -345 -355 -388 -399 -125
-128 -283 -288 -316 -321 l-31 -29 -93 96 c-50 53 -216 223 -367 378 -151 155
-313 321 -359 368 -46 48 -219 226 -385 396 -166 170 -385 395 -487 500 -103
105 -272 278 -376 385 l-188 193 -368 2 c-202 0 -367 -1 -367 -4 0 -6 103
-113 510 -530 269 -275 371 -381 748 -768 63 -65 238 -245 390 -400 153 -156
320 -328 372 -382 52 -54 219 -226 371 -382 152 -155 354 -362 447 -458 l171
-175 98 101 c54 56 227 234 385 395 157 162 330 340 385 396 54 56 231 238
394 405 163 167 332 340 375 384 44 45 208 214 365 375 158 162 329 337 380
390 52 53 213 219 359 369 146 149 266 275 267 278 4 8 -51 65 -999 1036 -91
94 -213 219 -270 277 -109 113 -544 559 -839 862 -97 99 -178 176 -180 170z"/>
</g>
</svg>
